# xmcd
#
# Track frame offsets:
#	150
#	15097
#	31682
#	54850
#	72067
#	95170
#	118455
#	135565
#	157227
#	174027
#	196905
#	217315
#	232950
#	255912
#	273867
#	290135
#
# Disc length: 4075 seconds
#
# Revision: 2
# Processed by: cddbd v1.5.2PL0 Copyright (c) Steve Scherf et al.
# Submitted via: audiograbber 1.83.01
#
DISCID=db0fe910
DTITLE=MH1053 Monster Hits - Male Classic Country (MH)
DYEAR=2008
DGENRE=Karaoke
TTITLE0=Marvin Gaye - Mercy Mercy Me (The Ecology) (MH)
TTITLE1=George Benson - This Masquerade (MH)
TTITLE2=George Clinton - Atomic Dog (MH)
TTITLE3=The Commodores - Still (MH)
TTITLE4=Michael Jackson - Billie Jean (MH)
TTITLE5=Kool and The Gang - Get Down On It (MH)
TTITLE6=The Commodores - Lady (You Bring Me Up) (MH)
TTITLE7=LTD - (Every Time I Turn Around) Back In Love Again (MH)
TTITLE8=Sly and The Family Stone - Thank You (Falletinme Be Mice Elf Agin) (MH)
TTITLE9=Frankie Smith - Dubble Dutch Bus (MH)
TTITLE10=Heatwave - Boogie Nights (MH)
TTITLE11=The Commodores - Brick House (MH)
TTITLE12=One Way - Cutie Pie (MH)
TTITLE13=Parliment - Flash Light (MH)
TTITLE14=The Gap Band - Early In The Morning (MH)
TTITLE15=Stevie Wonder - You Are The Sunshine Of My Life (MH)
EXTD=
EXTT0=
EXTT1=
EXTT2=
EXTT3=
EXTT4=
EXTT5=
EXTT6=
EXTT7=
EXTT8=
EXTT9=
EXTT10=
EXTT11=
EXTT12=
EXTT13=
EXTT14=
EXTT15=
PLAYORDER=
